<?xml version="1.0" encoding="utf-8"?>
<!-- Generator: Adobe Illustrator 16.0.0, SVG Export Plug-In . SVG Version: 6.00 Build 0)  -->
<!DOCTYPE svg PUBLIC "-//W3C//DTD SVG 1.1//EN" "http://www.w3.org/Graphics/SVG/1.1/DTD/svg11.dtd">
<svg version="1.1" id="Layer_1" xmlns="http://www.w3.org/2000/svg" xmlns:xlink="http://www.w3.org/1999/xlink" x="0px" y="0px"
	 width="1000px" height="200px" viewBox="0 0 1000 200" enable-background="new 0 0 1000 200" xml:space="preserve">
<g>
	<g>
		<path fill="#FFFFFF" d="M81.871,50.822l22.432,38.85l-22.432,38.85H37.01l-22.43-38.85l22.432-38.85H81.871 M81.871,39.036H37.01
			c-4.211,0-8.102,2.246-10.207,5.892L4.372,83.778c-2.105,3.649-2.105,8.141,0,11.788l22.431,38.851
			c2.104,3.647,5.996,5.894,10.207,5.894h44.86c4.211,0,8.104-2.244,10.208-5.894l22.43-38.851c2.105-3.647,2.105-8.139,0-11.788
			l-22.43-38.85C89.974,41.282,86.082,39.036,81.871,39.036L81.871,39.036z"/>
	</g>
	<g>
		<path fill="#FFFFFF" d="M178.271,107.773l22.428,38.852l-22.428,38.85h-44.86l-22.431-38.85l22.431-38.852H178.271
			 M178.271,95.987h-44.86c-4.21,0-8.102,2.248-10.208,5.894l-22.431,38.85c-2.106,3.647-2.106,8.14,0,11.787l22.431,38.851
			c2.106,3.646,5.997,5.894,10.208,5.894h44.86c4.21,0,8.101-2.248,10.205-5.894l22.432-38.851c2.105-3.647,2.105-8.14,0-11.787
			l-22.432-38.85C186.372,98.234,182.481,95.987,178.271,95.987L178.271,95.987z"/>
	</g>
	<g>
		<path fill="#FFFFFF" d="M168.1,14.794l16.089,27.867L168.1,70.53H135.92l-16.089-27.869l16.089-27.867H168.1 M168.1,3.008H135.92
			c-4.209,0-8.101,2.247-10.206,5.893l-16.09,27.868c-2.105,3.648-2.105,8.14,0,11.787l16.09,27.867
			c2.105,3.647,5.997,5.895,10.206,5.895H168.1c4.211,0,8.102-2.247,10.208-5.895l16.088-27.867c2.105-3.646,2.105-8.139,0-11.787
			L178.308,8.9C176.202,5.254,172.311,3.008,168.1,3.008L168.1,3.008z"/>
	</g>
	<g>
		<path fill="#FFFFFF" d="M335.211,55.952c-3.192-7.379-7.779-13.961-13.165-19.545C310.279,24.24,293.925,16.86,275.973,16.86
			s-34.307,7.38-46.074,19.546c-11.769,12.167-19.147,28.719-19.147,46.87c0,18.352,7.379,34.906,19.147,46.871
			c11.768,12.168,28.123,19.748,46.074,19.748s34.306-7.58,46.072-19.748c5.386-5.584,9.973-11.965,13.165-19.347h3.391
			c-3.391,8.177-8.377,15.558-14.36,21.741c-12.367,12.764-29.32,20.544-48.268,20.544c-18.948,0-35.901-7.78-48.268-20.544
			c-12.167-12.566-19.944-29.918-19.944-49.266c0-19.146,7.777-36.5,19.944-49.063c12.366-12.765,29.32-20.544,48.268-20.544
			c18.946,0,35.9,7.779,48.268,20.544c5.983,6.182,10.97,13.562,14.36,21.739L335.211,55.952L335.211,55.952z"/>
		<path fill="#FFFFFF" d="M370.702,32.417c12.765-13.163,30.715-21.142,50.263-21.142c19.744,0,37.496,7.979,50.46,21.142
			c12.767,12.965,20.942,30.915,20.942,50.663c0,19.744-8.176,37.693-20.942,50.66c-12.964,13.162-30.716,21.141-50.46,21.141
			c-19.547,0-37.498-7.979-50.263-21.141c-12.765-12.967-20.943-30.916-20.943-50.66C349.759,63.331,357.937,45.381,370.702,32.417z
			 M469.231,34.811c-12.365-12.566-29.518-20.344-48.268-20.344c-18.751,0-35.704,7.778-48.069,20.344
			C360.729,47.176,352.95,64.13,352.95,83.079c0,18.946,7.779,35.897,19.944,48.267c12.367,12.563,29.318,20.344,48.069,20.344
			c18.75,0,35.901-7.779,48.268-20.344c12.167-12.367,19.744-29.318,19.744-48.267C488.975,64.13,481.398,47.176,469.231,34.811z"/>
		<path fill="#FFFFFF" d="M592.479,42.589c-1.195-5.785-3.589-10.771-7.577-15.158c-8.578-9.175-22.339-12.964-34.904-12.765
			c-13.164,0.199-28.125,4.986-36.502,15.957c-4.984,6.182-6.779,13.563-6.181,21.341c3.589,48.866,81.775,10.571,91.349,55.25
			c6.381,29.519-21.543,47.068-48.069,47.068c-20.345,0-45.073-11.567-47.468-34.104l-0.2-1.396l3.189-0.399l0.201,1.396
			c2.193,20.943,25.529,31.516,44.478,31.516c24.335,0,50.661-15.756,44.875-43.482c-8.973-41.482-87.759-3.59-91.349-55.646
			c-0.796-8.377,1.396-16.554,6.583-23.335c20.344-26.33,77.785-22.94,84.569,13.161l0.197,1.596l-2.99,0.598L592.479,42.589z"/>
		<path fill="#FFFFFF" d="M618.602,149.896h74.194v2.99h-76.987h-0.398V13.469h76.987v2.993h-73.796v65.021h72.198v3.189h-72.198
			V149.896z"/>
		<path fill="#FFFFFF" d="M710.541,149.693h74.993v3.191c-26.13,0-52.059,0-78.184,0V13.469h3.189L710.541,149.693L710.541,149.693z
			"/>
		<path fill="#FFFFFF" d="M801.282,149.693h74.996v3.191c-26.129,0-52.058,0-78.187,0V13.469h3.189L801.282,149.693L801.282,149.693
			z"/>
		<path fill="#FFFFFF" d="M973.201,106.014h-70.606l-18.946,46.873h-3.39l56.046-141.612h3.389l56.049,141.612h-3.393
			L973.201,106.014z M903.99,103.023h68.017l-34.108-87.561L903.99,103.023z"/>
	</g>
</g>
</svg>
